<svg xmlns="http://www.w3.org/2000/svg" data-name="Layer 1" viewBox="0 0 100 125" x="0px" y="0px"><path d="M49.29,74.51a4,4,0,0,1-3.36-1.79,32.75,32.75,0,0,1-21.44-6A33,33,0,0,1,10.92,47.63l-.12-.5.52-.1a30.39,30.39,0,0,1,14.91,1.06l.29.1.05.29a28.88,28.88,0,0,0,2.71,7.92,28.48,28.48,0,0,0,15.95,14,2.83,2.83,0,0,1,0-.3A33.18,33.18,0,0,1,29.73,55.33a33.07,33.07,0,0,1-3.35-23.2l.13-.51.5.15A30.36,30.36,0,0,1,39.8,39.53l.21.21-.08.28a29,29,0,0,0-1.21,8.29,28.6,28.6,0,0,0,6.85,18.61A29.75,29.75,0,0,1,50.09,25.6l.34-.27.32.29A30,30,0,0,1,59.14,39h0a29.8,29.8,0,0,1-6.76,28.87,3.08,3.08,0,0,1,.37.5,28.77,28.77,0,0,0,7.32-28.7L60,39.37l.21-.21A30.36,30.36,0,0,1,73,31.4l.5-.15.13.51A33.07,33.07,0,0,1,70.27,55,33,33,0,0,1,53.34,70.28v.18h0A28.83,28.83,0,0,0,73.43,48.11l0-.29.29-.1a30.36,30.36,0,0,1,14.91-1.06l.52.1-.12.51A33,33,0,0,1,75.51,66.38a32.87,32.87,0,0,1-22.58,5.85A4,4,0,0,1,49.29,74.51Zm-2.54-2.36a3.05,3.05,0,0,0,5.3-.39l.11-.27v0a4,4,0,0,0,.12-.43h0a3.36,3.36,0,0,0,.05-.57v-.15l0-.31v0a2.19,2.19,0,0,0-.16-.57h0l-.1-.24a3,3,0,0,0-.63-.87l-.06,0h0a3.06,3.06,0,0,0-4.07,0l0,0a2.91,2.91,0,0,0-.49.57h0a3.13,3.13,0,0,0-.45,1.07v.09a2.27,2.27,0,0,0-.05.53,2.49,2.49,0,0,0,0,.47V71a2.52,2.52,0,0,0,.33.91ZM12,47.92a32.11,32.11,0,0,0,13,18,31.88,31.88,0,0,0,20.39,5.82c0-.09,0-.18-.08-.28A29.79,29.79,0,0,1,25.65,49,29.52,29.52,0,0,0,12,47.92ZM53.91,71.33a32.09,32.09,0,0,0,21-5.77,32.22,32.22,0,0,0,13-18,29.34,29.34,0,0,0-13.63,1A29.77,29.77,0,0,1,53.91,71.33Zm7.2-31.68a29.75,29.75,0,0,1-7.84,29.59A32.13,32.13,0,0,0,69.39,54.48a32.09,32.09,0,0,0,3.38-22A29.52,29.52,0,0,0,61.11,39.65ZM27.23,32.88a32.09,32.09,0,0,0,3.38,22A32.11,32.11,0,0,0,45.48,69.07a3.16,3.16,0,0,1,.22-.5A29.77,29.77,0,0,1,38.89,40,29.52,29.52,0,0,0,27.23,32.88ZM49.29,66.41a4.07,4.07,0,0,1,2.36.76,28.65,28.65,0,0,0,7.74-19.62,29,29,0,0,0-1.21-8.29h0a28.94,28.94,0,0,0-7.79-12.6A28.73,28.73,0,0,0,47,67.1a4.14,4.14,0,0,1,2.2-.69Z"/><text x="0" y="115" fill="#000000" font-size="5px" font-weight="bold" font-family="'Helvetica Neue', Helvetica, Arial-Unicode, Arial, Sans-serif">Created by Miriam Hernandez</text><text x="0" y="120" fill="#000000" font-size="5px" font-weight="bold" font-family="'Helvetica Neue', Helvetica, Arial-Unicode, Arial, Sans-serif">from the Noun Project</text></svg>